PathFileType	4	(X/Y/Z)	35_2_71_p0_0-286.trc
DataRate	CameraRate	NumFrames	NumMarkers	Units	OrigDataRate	OrigDataStartFrame	OrigNumFrames
56.0	56.0	6	27	m	56.0	143	287
Frame#	Time	RHip			RKnee			RAnkle			RBigToe			RSmallToe			RHeel			LHip			LKnee			LAnkle			LBigToe			LSmallToe			LHeel			Neck			Head			Nose			RShoulder			RElbow			RWrist			RThumb			RIndex			RPinky			LShoulder			LElbow			LWrist			LThumb			LIndex			LPinky			
		X1	Y1	Z1	X2	Y2	Z2	X3	Y3	Z3	X4	Y4	Z4	X5	Y5	Z5	X6	Y6	Z6	X7	Y7	Z7	X8	Y8	Z8	X9	Y9	Z9	X10	Y10	Z10	X11	Y11	Z11	X12	Y12	Z12	X13	Y13	Z13	X14	Y14	Z14	X15	Y15	Z15	X16	Y16	Z16	X17	Y17	Z17	X18	Y18	Z18	X19	Y19	Z19	X20	Y20	Z20	X21	Y21	Z21	X22	Y22	Z22	X23	Y23	Z23	X24	Y24	Z24	X25	Y25	Z25	X26	Y26	Z26	X27	Y27	Z27	
143	2.5535714285714284	0.3740374606178973	0.5611191056289175	0.5202352053175325	0.3546064009112162	0.8446295642840596	0.8582939350359027	0.35481728306527405	1.1570175531250393	1.1876183483576677	0.3595630016548768	1.0125653438567184	1.2927587585500804	0.4254494219118109	1.0300002576531342	1.2854682538799587	0.3367568234791681	1.2225960465160712	1.2020167047962012	0.14210376501423894	0.5779148385117571	0.5049308491295396	0.15503846463224624	0.8281039285963911	0.8417351756536636	0.17803625611540513	1.1281691416241806	1.1828430225163424	0.21098013735802343	0.9909263512420023	1.2875712851602004	0.14208825082227636	0.9949710077169707	1.272204234583133	0.19240109917650583	1.2110591526907515	1.227403408799405	0.26713040028104607	0.290022339137968	-0.00887678421826252	0.25851103884205384	0.15253014278810473	-0.2262924253323091	0.25451728516324584	0.14336710601881913	-0.074426243541525	0.4521882179796569	0.3378270853219074	0.07220255505592024	0.500799756546494	0.5354428488364203	0.3099296214667882	0.514939075409236	0.657069647475741	0.5547560380447597	0.43796573485214585	0.7096021900416198	0.6730011644892919	0.4518797751742043	0.7305365794179912	0.6858580289452587	0.5110205041488751	0.7782752068089902	0.659173494231309	0.098438525930517	0.3893287346182777	0.05728521566224141	0.025663333090413246	0.5623103471109088	0.29880058187379815	0.0221067491581578	0.6607340563584211	0.5463781453435296	0.06764602963202594	0.6969260824298186	0.6414053682386304	0.028247056375318488	0.7134925674453898	0.67336623687307	0.002746603492169526	0.7074472316954807	0.6465277366096847
144	2.5714285714285716	0.3737369979693056	0.5637377438248148	0.5275108341660715	0.355598440848	0.8485014789772746	0.8621618484304304	0.3505436107505684	1.1403596942078698	1.1867112200399008	0.35938178937899895	1.0122071939726585	1.2920917129565557	0.42150544317764943	1.0150152206798375	1.2838223090101537	0.3286066210002696	1.1909038506964995	1.2046556429509168	0.14181216667112567	0.5804083561431645	0.5118756397214893	0.15510675327568182	0.8285215569437433	0.841728976545523	0.17784289880621532	1.1482416401387252	1.1838497869628284	0.2112142060875732	0.9907012831083422	1.2877517860298946	0.14303256681400475	0.9928628383063505	1.2690505344064773	0.19198135096242852	1.2106658938464905	1.2275602557610787	0.2673451163582042	0.2900871504362598	-0.008948125214720661	0.2551077598295745	0.1526497019901024	-0.2228098479750264	0.25382786575456945	0.12950106014803148	-0.07185192210708814	0.4481553969951656	0.3377192057219404	0.07245430560901152	0.503729658568407	0.5219875020896857	0.3170586214488052	0.515842025242141	0.6603781163535868	0.5578755494732983	0.43373432709564713	0.7082832081920309	0.6731966486759384	0.44443804727371267	0.7268609832102684	0.6828799755674821	0.5107670856821345	0.7788253117290093	0.6591802551972549	0.09836404806531211	0.3894595223829029	0.05708273165619572	0.022948868325840907	0.5483846333483724	0.2974472378904849	0.01966360039975418	0.6470210771017676	0.5485949113550036	0.06768851954346759	0.6973169659213273	0.6413322086220599	0.029076945631736698	0.7150369034562323	0.6733766467114694	0.005917983829829919	0.7098068584151451	0.6499444089613261
145	2.5892857142857144	0.3696384522224404	0.5631395790280084	0.5277588200768019	0.363358403301785	0.8616595233775015	0.8574959771400027	0.35058071180235467	1.1410077487359904	1.1869187917923323	0.35524009789172767	0.9977482635946526	1.2915538438731045	0.42108022138123674	1.0136338032654195	1.284131922975319	0.3338644451960011	1.210775219553849	1.2097420915269501	0.1374918703862521	0.5940755416171057	0.5098139012442151	0.15414208550573485	0.8599661077064846	0.8402889988549866	0.17800577788923339	1.1282062944894242	1.1826948495020184	0.21123434761768836	0.9906908462951405	1.2877897759353243	0.14309696017457818	0.9919524550539134	1.2688682893472776	0.19204134027677514	1.211237686698647	1.227846132625716	0.26759242862205057	0.2910808343147522	-0.005806477953025917	0.25860769493927943	0.1423069662932117	-0.21779537997900783	0.2541979380104118	0.1315206737593793	-0.06894695779065885	0.44808473700821244	0.33900504851205987	0.07552390199260221	0.5036222848535458	0.5219259105460193	0.31746430100057427	0.5110706108660532	0.6507649258288989	0.5673267905272135	0.4338386989607033	0.7085188793760143	0.6733969424656453	0.4438737825361269	0.7285824512187827	0.6866152108352159	0.5078817063637552	0.7953914658511336	0.6577604649407431	0.09867596186277927	0.3883558198438207	0.05387878885936283	0.022459140015755656	0.5488796547267308	0.3007477217114743	0.020133955651126724	0.649191705595244	0.5521751635086217	0.0674835322611941	0.7017162750760713	0.6482263732566242	0.028702128422527926	0.715193745859424	0.6779842630283817	0.00601175446006564	0.7129843261519225	0.6541372981191396
146	2.607142857142857	0.37383391125272836	0.5638931145397668	0.527588506003614	0.35984191997344506	0.8516505076875529	0.8617784772165212	0.3505378659261841	1.1406255619103915	1.1871120861601032	0.3552571548997939	0.9980062346347977	1.2916083601212844	0.4212146857287972	1.014149325000968	1.2841914264094818	0.32949549531609046	1.194423331600212	1.2088135580998158	0.14243786987806162	0.5834499936034652	0.5157532125989418	0.15407658270649016	0.8603347084738073	0.8402721816570351	0.18255269299362845	1.130018504673948	1.1827450376391635	0.21123964041217752	0.9906941873769618	1.2878536687100282	0.14214635741765072	0.9943748300641235	1.2721272694282542	0.19207197828067285	1.2104687245368428	1.2275112789673501	0.26383165216937104	0.29005770427417105	-0.005221726692466918	0.25558561976821026	0.1539621787313552	-0.21945901414816726	0.25817742197972676	0.1326422231690672	-0.06940617056999854	0.4491998079033739	0.3515379457052473	0.07131908602464943	0.5012006450886884	0.5371488772461412	0.31789080643898887	0.5158652696086974	0.6631049349471105	0.5656740640428437	0.4340766948270509	0.708857483901842	0.6733631700243701	0.4440350292468891	0.728689964397215	0.686641937534331	0.5078856160971569	0.7954408214210715	0.6578220612678253	0.09867233804076217	0.38841115073195615	0.05400809349125944	0.022347655030538077	0.5488707575772512	0.3007795465885736	0.019879703884645623	0.6493592532370455	0.5521485674444976	0.06825489045842478	0.7005000882709663	0.6456745277927429	0.030157054244143208	0.7216260585734903	0.6859197444097822	0.0021474791234286613	0.7118367710744429	0.6545498548114511
147	2.625	0.3740410347873755	0.5638609593268851	0.5274663492171022	0.3606968156303565	0.882091520835953	0.8604892511139594	0.3506452401270822	1.1408456354051144	1.187093623761769	0.35518413901021106	0.9979843708564804	1.2913753032176245	0.42126754647620285	1.0143076522120216	1.2841886470458006	0.3338477308261208	1.210647401645629	1.2094805045840988	0.1430295852402814	0.5820624646283391	0.5127129562210846	0.15400442823113228	0.8606601453487288	0.840201985622933	0.18356940822387166	1.127575959290869	1.1783979031666367	0.20793241177339067	0.9750432309672246	1.2865002029981498	0.1429305628878478	0.9923287545330649	1.2690210875832995	0.1931716051048139	1.2074184297910353	1.2220050698509923	0.26374478951487196	0.2900181701120875	-0.005111402280836909	0.2599514454079347	0.1545587869815233	-0.21954550624141053	0.26216650751779647	0.13399946134196916	-0.06993850404570857	0.44917283148853093	0.3515624941324587	0.07138962090590853	0.5040531144601664	0.5231046288283202	0.32100620069967434	0.5111502087348082	0.650509254537947	0.5679100760315186	0.43430886478052166	0.709513051921315	0.6768046529493396	0.4439904876478998	0.7287754343866075	0.6868471677506437	0.5111550540008681	0.7796259112608739	0.6634741543796199	0.09865882102845441	0.38844813499442826	0.054195103701732916	0.02267302754335635	0.553542333432618	0.30786641110251955	0.0198970467134552	0.6487080109181478	0.552411635667125	0.07331237139537129	0.6865929396737492	0.6512161311612554	0.031266465099216205	0.7194375441336306	0.6897442246083271	0.0018024693355516426	0.7117873236845259	0.6547169453090176
148	2.642857142857143	0.37409193380523503	0.5638307546576699	0.5274795270959173	0.3599009781686569	0.8792496364500608	0.856845183357661	0.35116341798226003	1.1783470998511894	1.1892949806240454	0.3551442566087621	0.9981299776801772	1.2917524503989684	0.42119211451644445	1.0139874490524026	1.2842164051154736	0.337258466564052	1.2235889958389083	1.207018963243149	0.14302608893479057	0.5820144634552962	0.5128738719022025	0.15759564010481675	0.875779039895229	0.8394084953924376	0.1826724765633142	1.1295687164855466	1.1824357202237301	0.20708778117533647	0.9710605259890599	1.2825174183951407	0.14283456310526352	0.9923788651526255	1.269038807440965	0.19788912377462953	1.2117483460539988	1.222487330361481	0.26056953727562476	0.30376524568764335	-0.006382370857086167	0.26035081274735394	0.15572716415595192	-0.2197405482247392	0.26258889285926196	0.13716411420897132	-0.06427802246660434	0.4494780634504542	0.35258960752043716	0.07471992253397351	0.5040713433254941	0.5230880248087251	0.3210399339853492	0.5112203407866539	0.6506352272019439	0.5680097507000093	0.4343686497788557	0.7094625524005617	0.6768687726075273	0.4440906730126566	0.7287022357708418	0.6868822191954993	0.5107336979488386	0.7813808668135835	0.6667428310662633	0.09863515684859599	0.39224324594702475	0.06034636711598121	0.022582144081199542	0.5537428400785617	0.3079392897539473	0.01955610666726014	0.6492630919676246	0.5557162030119825	0.07195269452258755	0.6898059126450317	0.6578165702629242	0.03538012465721365	0.7055605876710872	0.6914769020517658	-0.003805263590807167	0.714582433438388	0.6625552708888066
